<svg xmlns="http://www.w3.org/2000/svg" viewBox="0 0 860 520">
<defs><linearGradient id="bg" x1="0" y1="0" x2="1" y2="1"><stop offset="0%" stop-color="#FFFFFF"/><stop offset="100%" stop-color="#F4F4F2"/></linearGradient></defs>
<rect width="860" height="520" fill="url(#bg)"/>
<rect x="30" y="30" width="800" height="460" rx="34" fill="#ffffff" stroke="#E5E7EB" stroke-width="2"/>
<text x="72" y="88" font-size="18" font-family="Arial,sans-serif" fill="#666">Seconda media · Informatica</text>
<text x="72" y="138" font-size="32" font-family="Arial,sans-serif" fill="#111" font-weight="700"><tspan x="72" dy="0">Password, privacy e</tspan><tspan x="72" dy="34">sicurezza digitale</tspan></text>
<text x="72" y="198" font-size="18" font-family="Arial,sans-serif" fill="#666">Zorix Education · visual summary</text>
<rect x="120" y="205" width="150" height="88" rx="20" fill="#0F766E" opacity=".11" stroke="#0F766E" stroke-width="3"/><rect x="345" y="205" width="150" height="88" rx="20" fill="#0F766E" opacity=".11" stroke="#0F766E" stroke-width="3"/><rect x="570" y="205" width="150" height="88" rx="20" fill="#0F766E" opacity=".11" stroke="#0F766E" stroke-width="3"/><path d="M273 249h58M498 249h58" stroke="#0F766E" stroke-width="8" stroke-linecap="round"/><path d="M315 233l18 16-18 16M540 233l18 16-18 16" fill="none" stroke="#0F766E" stroke-width="8" stroke-linecap="round" stroke-linejoin="round"/>
<rect x="72" y="404" rx="16" ry="16" width="202" height="34" fill="#0F766E" opacity=".10"/><text x="88" y="426" font-size="16" font-family="Arial,sans-serif" fill="#0F766E" font-weight="700">Pensiero computazionale</text><rect x="286" y="404" rx="16" ry="16" width="146" height="34" fill="#0F766E" opacity=".10"/><text x="302" y="426" font-size="16" font-family="Arial,sans-serif" fill="#0F766E" font-weight="700">Dati e algoritmi</text><rect x="444" y="404" rx="16" ry="16" width="282" height="34" fill="#0F766E" opacity=".10"/><text x="460" y="426" font-size="16" font-family="Arial,sans-serif" fill="#0F766E" font-weight="700">Sicurezza e cittadinanza digitale</text>
<circle cx="770" cy="92" r="28" fill="#0F766E"/>
<text x="770" y="99" text-anchor="middle" font-size="15" font-family="Arial,sans-serif" fill="#fff" font-weight="700">&lt;/&gt;</text>
</svg>