<svg xmlns="http://www.w3.org/2000/svg" viewBox="0 0 860 520">
<defs><linearGradient id="bg" x1="0" y1="0" x2="1" y2="1"><stop offset="0%" stop-color="#FFFFFF"/><stop offset="100%" stop-color="#F4F4F2"/></linearGradient></defs>
<rect width="860" height="520" fill="url(#bg)"/>
<rect x="30" y="30" width="800" height="460" rx="34" fill="#ffffff" stroke="#E5E7EB" stroke-width="2"/>
<text x="72" y="88" font-size="18" font-family="Arial,sans-serif" fill="#666">Seconda media · Scienze</text>
<text x="72" y="138" font-size="32" font-family="Arial,sans-serif" fill="#111" font-weight="700"><tspan x="72" dy="0">Corpo umano: apparati e</tspan><tspan x="72" dy="34">funzioni</tspan></text>
<text x="72" y="198" font-size="18" font-family="Arial,sans-serif" fill="#666">Zorix Education · visual summary</text>
<circle cx="300" cy="270" r="70" fill="#DC2626" opacity=".12" stroke="#DC2626" stroke-width="5"/><circle cx="530" cy="240" r="28" fill="#DC2626"/><circle cx="590" cy="290" r="14" fill="#DC2626" opacity=".7"/><circle cx="470" cy="306" r="14" fill="#DC2626" opacity=".7"/><ellipse cx="530" cy="240" rx="110" ry="46" fill="none" stroke="#DC2626" stroke-width="5" opacity=".7"/><ellipse cx="530" cy="240" rx="46" ry="110" fill="none" stroke="#DC2626" stroke-width="5" opacity=".5"/><line x1="240" y1="225" x2="360" y2="315" stroke="#DC2626" stroke-width="5"/>
<rect x="72" y="404" rx="16" ry="16" width="162" height="34" fill="#DC2626" opacity=".10"/><text x="88" y="426" font-size="16" font-family="Arial,sans-serif" fill="#DC2626" font-weight="700">Metodo scientifico</text><rect x="246" y="404" rx="16" ry="16" width="162" height="34" fill="#DC2626" opacity=".10"/><text x="262" y="426" font-size="16" font-family="Arial,sans-serif" fill="#DC2626" font-weight="700">Modelli e fenomeni</text><rect x="420" y="404" rx="16" ry="16" width="250" height="34" fill="#DC2626" opacity=".10"/><text x="436" y="426" font-size="16" font-family="Arial,sans-serif" fill="#DC2626" font-weight="700">Dati, esperimenti e relazioni</text>
<circle cx="770" cy="92" r="28" fill="#DC2626"/>
<text x="770" y="99" text-anchor="middle" font-size="15" font-family="Arial,sans-serif" fill="#fff" font-weight="700">SC</text>
</svg>